<svg width="25" height="24" viewBox="0 0 25 24" fill="none" xmlns="http://www.w3.org/2000/svg">
<path d="M18.3034 22C17.5201 22 16.8493 21.7208 16.2909 21.1625C15.7326 20.6042 15.4534 19.9333 15.4534 19.15C15.4534 19.0333 15.4659 18.8958 15.4909 18.7375C15.5159 18.5792 15.5534 18.4333 15.6034 18.3L8.02842 13.9C7.77842 14.1833 7.47008 14.4125 7.10342 14.5875C6.73675 14.7625 6.36175 14.85 5.97842 14.85C5.19508 14.85 4.52425 14.5708 3.96592 14.0125C3.40758 13.4542 3.12842 12.7833 3.12842 12C3.12842 11.2 3.40758 10.525 3.96592 9.975C4.52425 9.425 5.19508 9.15 5.97842 9.15C6.36175 9.15 6.72842 9.225 7.07842 9.375C7.42842 9.525 7.74508 9.74167 8.02842 10.025L15.6034 5.675C15.5534 5.55833 15.5159 5.425 15.4909 5.275C15.4659 5.125 15.4534 4.98333 15.4534 4.85C15.4534 4.05 15.7326 3.375 16.2909 2.825C16.8493 2.275 17.5201 2 18.3034 2C19.1034 2 19.7784 2.275 20.3284 2.825C20.8784 3.375 21.1534 4.05 21.1534 4.85C21.1534 5.63333 20.8784 6.30417 20.3284 6.8625C19.7784 7.42083 19.1034 7.7 18.3034 7.7C17.9201 7.7 17.5493 7.6375 17.1909 7.5125C16.8326 7.3875 16.5284 7.18333 16.2784 6.9L8.70342 11.1C8.73675 11.2333 8.76592 11.3875 8.79092 11.5625C8.81592 11.7375 8.82842 11.8833 8.82842 12C8.82842 12.1167 8.81592 12.2417 8.79092 12.375C8.76592 12.5083 8.73675 12.6417 8.70342 12.775L16.2784 17.075C16.5284 16.8417 16.8201 16.6542 17.1534 16.5125C17.4868 16.3708 17.8701 16.3 18.3034 16.3C19.1034 16.3 19.7784 16.575 20.3284 17.125C20.8784 17.675 21.1534 18.35 21.1534 19.15C21.1534 19.9333 20.8784 20.6042 20.3284 21.1625C19.7784 21.7208 19.1034 22 18.3034 22ZM18.3034 6.2C18.6868 6.2 19.0076 6.07083 19.2659 5.8125C19.5243 5.55417 19.6534 5.23333 19.6534 4.85C19.6534 4.46667 19.5243 4.14583 19.2659 3.8875C19.0076 3.62917 18.6868 3.5 18.3034 3.5C17.9201 3.5 17.5993 3.62917 17.3409 3.8875C17.0826 4.14583 16.9534 4.46667 16.9534 4.85C16.9534 5.23333 17.0826 5.55417 17.3409 5.8125C17.5993 6.07083 17.9201 6.2 18.3034 6.2ZM5.97842 13.35C6.36175 13.35 6.68258 13.2208 6.94092 12.9625C7.19925 12.7042 7.32842 12.3833 7.32842 12C7.32842 11.6167 7.19925 11.2958 6.94092 11.0375C6.68258 10.7792 6.36175 10.65 5.97842 10.65C5.59508 10.65 5.27425 10.7792 5.01592 11.0375C4.75758 11.2958 4.62842 11.6167 4.62842 12C4.62842 12.3833 4.75758 12.7042 5.01592 12.9625C5.27425 13.2208 5.59508 13.35 5.97842 13.35ZM18.3034 20.5C18.6868 20.5 19.0076 20.3708 19.2659 20.1125C19.5243 19.8542 19.6534 19.5333 19.6534 19.15C19.6534 18.7667 19.5243 18.4458 19.2659 18.1875C19.0076 17.9292 18.6868 17.8 18.3034 17.8C17.9201 17.8 17.5993 17.9292 17.3409 18.1875C17.0826 18.4458 16.9534 18.7667 16.9534 19.15C16.9534 19.5333 17.0826 19.8542 17.3409 20.1125C17.5993 20.3708 17.9201 20.5 18.3034 20.5Z" fill="white"/>
</svg>
