<svg xmlns="http://www.w3.org/2000/svg" width="29.535" height="28.804" viewBox="0 0 29.535 28.804">
  <path id="github" d="M14.768.3A14.768,14.768,0,0,0,10.1,29.076c.738.139,1.009-.318,1.009-.71,0-.351-.012-1.28-.018-2.511-4.108.891-4.974-1.981-4.974-1.981a3.914,3.914,0,0,0-1.643-2.16c-1.338-.916.1-.9.1-.9a3.1,3.1,0,0,1,2.262,1.521,3.147,3.147,0,0,0,4.3,1.228,3.148,3.148,0,0,1,.935-1.975c-3.28-.369-6.727-1.639-6.727-7.3a5.7,5.7,0,0,1,1.52-3.963,5.251,5.251,0,0,1,.129-3.909s1.237-.4,4.061,1.514a13.923,13.923,0,0,1,7.384,0c2.806-1.91,4.043-1.514,4.043-1.514a5.4,5.4,0,0,1,.148,3.909,5.721,5.721,0,0,1,1.514,3.963c0,5.673-3.452,6.922-6.738,7.285a3.536,3.536,0,0,1,1,2.732c0,1.976-.018,3.564-.018,4.044,0,.388.258.849,1.015.7A14.75,14.75,0,0,0,14.768.3" transform="translate(0 -0.297)" fill="#202020"/>
</svg>
