<svg xmlns="http://www.w3.org/2000/svg" width="29.688" height="29.688" viewBox="0 0 29.688 29.688">
  <path id="telegram" d="M14.774,0a14.878,14.878,0,1,0,.069,0h-.069Zm6.138,8.936a.971.971,0,0,1,.575.173.626.626,0,0,1,.212.4,2.6,2.6,0,0,1,.025.584c-.223,2.348-1.19,8.043-1.682,10.671-.208,1.113-.617,1.486-1.014,1.521-.861.08-1.515-.569-2.35-1.116-1.306-.857-2.045-1.39-3.313-2.227-1.466-.965-.516-1.5.319-2.363.219-.228,4.016-3.682,4.091-4a.3.3,0,0,0-.069-.262.344.344,0,0,0-.308-.03q-.2.045-6.26,4.138a2.8,2.8,0,0,1-1.611.594,10.509,10.509,0,0,1-2.307-.544c-.93-.3-1.669-.463-1.6-.976q.05-.4,1.1-.82,6.49-2.828,8.656-3.728c4.122-1.714,4.979-2.013,5.537-2.022Z" transform="translate(0 0)" fill="#202020"/>
</svg>
