<svg width="84" height="11" viewBox="0 0 84 11" fill="none" xmlns="http://www.w3.org/2000/svg">
<rect width="12" height="2" rx="1" fill="#B320CB"/>
<rect y="9" width="12" height="2" rx="1" fill="#B320CB"/>
<rect y="8" width="5" height="2" rx="1" transform="rotate(-90 0 8)" fill="#B320CB"/>
<rect x="6" y="6" width="6" height="2" rx="1" fill="#B320CB"/>
<rect x="72" width="12" height="2" rx="1" fill="#B320CB"/>
<rect x="72" y="9" width="12" height="2" rx="1" fill="#B320CB"/>
<rect x="82" y="6" width="2" height="5" rx="1" fill="#B320CB"/>
<rect x="72" y="11" width="11" height="2" rx="1" transform="rotate(-90 72 11)" fill="#B320CB"/>
<rect x="78" y="6" width="6" height="2" rx="1" fill="#B320CB"/>
<rect x="24" width="12" height="2" rx="1" fill="#B320CB"/>
<rect x="24" y="9" width="12" height="2" rx="1" fill="#B320CB"/>
<rect x="24" y="11" width="11" height="2" rx="1" transform="rotate(-90 24 11)" fill="#B320CB"/>
<rect x="36" width="11" height="2" rx="1" transform="rotate(90 36 0)" fill="#B320CB"/>
<rect x="48" width="12" height="2" rx="1" fill="#B320CB"/>
<rect x="48" y="9" width="12" height="2" rx="1" fill="#B320CB"/>
<rect x="48" y="11" width="11" height="2" rx="1" transform="rotate(-90 48 11)" fill="#B320CB"/>
<rect x="60" width="11" height="2" rx="1" transform="rotate(90 60 0)" fill="#B320CB"/>
</svg>
